<?xml version="1.0" encoding="UTF-8"?>
<svg id="M" xmlns="http://www.w3.org/2000/svg" xmlns:xlink="http://www.w3.org/1999/xlink" viewBox="0 0 1000 1000">
  <defs>
    <style>
      .cls-1 {
        stroke: #fff;
        stroke-width: .71px;
      }

      .cls-1, .cls-2 {
        fill: #fff;
      }

      .cls-1, .cls-3 {
        stroke-linecap: round;
        stroke-linejoin: round;
      }

      .cls-4 {
        fill: url(#radial-gradient);
      }

      .cls-3 {
        fill: none;
        stroke: #84cc16;
        stroke-dasharray: 1.65 .41;
        stroke-width: 5px;
      }
    </style>
    <radialGradient id="radial-gradient" cx="500" cy="500" fx="500" fy="500" r="500" gradientUnits="userSpaceOnUse">
      <stop offset="0" stop-color="#e5e2df"/>
      <stop offset="0" stop-color="#d6d4d2"/>
      <stop offset="0" stop-color="#afafb2"/>
      <stop offset="0" stop-color="#70757e"/>
      <stop offset="0" stop-color="#1e293b"/>
      <stop offset=".46" stop-color="#1c2638"/>
      <stop offset=".73" stop-color="#161f30"/>
      <stop offset=".95" stop-color="#0c1221"/>
      <stop offset="1" stop-color="#0a0f1e"/>
    </radialGradient>
    <symbol id="New_Symbol" data-name="New Symbol" viewBox="0 0 1000 1000">
      <g>
        <g id="CIRCLE">
          <circle class="cls-4" cx="500" cy="500" r="500"/>
        </g>
        <g id="LINE">
          <line class="cls-3" x1="500" y1="2.5" x2="500" y2="997.5"/>
        </g>
        <g id="LINE-2" data-name="LINE">
          <line class="cls-3" x1="2.5" y1="500" x2="997.5" y2="500"/>
        </g>
        <path class="cls-1" d="M500,50c-248.53,0-450,201.47-450,450s201.47,450,450,450,450-201.47,450-450S748.53,50,500,50ZM500,900c-220.91,0-400-179.09-400-400S279.09,100,500,100s400,179.09,400,400-179.09,400-400,400Z"/>
        <g id="POLYLINE">
          <polygon class="cls-2" points="200 680 200 320 300 320 500 520 700 320 800 320 800 680 700 680 700 447.28 510 637.28 490 637.28 300 447.28 300 680 200 680"/>
        </g>
      </g>
    </symbol>
  </defs>
  <use width="1000" height="1000" transform="translate(0 .18)" xlink:href="#New_Symbol"/>
</svg>